<svg width="383" height="389" viewBox="0 0 383 389" fill="none" xmlns="http://www.w3.org/2000/svg">
<path d="M106 282.5C13 230 36.7453 71.1803 155.5 52C301 28.5 329.556 146.269 329.556 175.769C329.556 204.03 322.611 264.135 267.5 283.643C287.5 294 303.266 284.627 310.5 289.064C329.409 300.659 303.679 325.17 263.634 323C275.372 345.121 216.069 339.567 179 315.678C124.562 357.803 105.5 336.5 107 322C52 339 28.5 293.5 66.5 292C96.9 290.8 102.5 285.833 106 282.5Z" fill="#FF98B6"/>
<path d="M260 286C262.584 285.286 265.083 284.498 267.5 283.643M107 322C52 339 28.5 293.5 66.5 292C96.9 290.8 102.5 285.833 106 282.5C13 230 36.7453 71.1803 155.5 52C301 28.5 329.556 146.269 329.556 175.769C329.556 204.03 322.611 264.136 267.5 283.643M107 322C105.5 336.5 124.562 357.803 179 315.678M107 322C107.621 316 114.5 307.7 136.5 300.5M179 315.678C181.11 314.046 183.276 312.321 185.5 310.5L179 315.678ZM179 315.678C216.069 339.567 275.372 345.121 263.634 323M243.5 303.5C254.618 311.505 260.964 317.968 263.634 323M263.634 323C303.679 325.17 329.409 300.659 310.5 289.064C303.266 284.627 287.5 294 267.5 283.643" stroke="#3E0816" stroke-width="2" stroke-linecap="round" stroke-linejoin="round"/>
<circle cx="147" cy="149" r="4.5" fill="#3E0816" stroke="#3E0816"/>
<circle cx="221" cy="149" r="4.5" fill="#3E0816" stroke="#3E0816"/>
<path d="M185 164C183 161.5 178.2 161.2 177 164C175.5 167.5 181 169 183 169C180.667 169.833 177.273 172.644 179.5 174.5C181.727 176.356 184.667 173.5 185 172" stroke="#3E0816" stroke-width="2" stroke-linecap="round" stroke-linejoin="round"/>
</svg>
